<svg width="150" height="150" viewBox="0 0 150 150" fill="none" xmlns="http://www.w3.org/2000/svg">
<path d="M75.0007 12.5001C40.5007 12.5001 12.5007 40.5001 12.5007 75.0001C12.5007 109.5 40.5007 137.5 75.0007 137.5C109.501 137.5 137.501 109.5 137.501 75.0001C137.501 40.5001 109.501 12.5001 75.0007 12.5001ZM75.0007 31.2501C85.3757 31.2501 93.7507 39.6251 93.7507 50.0001C93.7507 60.3751 85.3757 68.7501 75.0007 68.7501C64.6257 68.7501 56.2507 60.3751 56.2507 50.0001C56.2507 39.6251 64.6257 31.2501 75.0007 31.2501ZM75.0007 120C59.3757 120 45.5632 112 37.5007 99.8751C37.6882 87.4376 62.5007 80.6251 75.0007 80.6251C87.4382 80.6251 112.313 87.4376 112.501 99.8751C104.438 112 90.6257 120 75.0007 120Z" fill="#4877AD"/>
</svg>
